<svg width="32" height="32" viewBox="0 0 32 32" fill="none" xmlns="http://www.w3.org/2000/svg">
<path fill-rule="evenodd" clip-rule="evenodd" d="M5.29284 8.05285C7.72286 4.78427 11.6141 2.66665 16 2.66665C20.4116 2.66665 24.3227 4.80925 26.7497 8.11062C26.6465 8.21686 26.5524 8.32694 26.4673 8.43689C26.0226 9.0126 25.6882 9.75418 25.4202 10.5072C24.8805 12.0218 24.4688 14.0001 24.0877 15.8527L24.0539 16.0193C23.6736 17.8684 23.3202 19.5882 22.8928 20.8648C22.7008 21.4383 22.5187 21.8438 22.3573 22.1035C22.1888 21.8418 21.9976 21.4313 21.7953 20.8495C21.3382 19.5363 20.9538 17.75 20.5463 15.8426L20.5331 15.7802C20.1415 13.9481 19.726 12.0042 19.2081 10.5163C18.9479 9.76884 18.6286 9.03469 18.211 8.46431C17.8012 7.90454 17.119 7.27279 16.1212 7.27279C15.1297 7.27279 14.4444 7.89768 14.0286 8.45118C13.603 9.01785 13.2711 9.74897 12.9977 10.4968C12.4472 12.0027 11.9971 13.9725 11.5782 15.8276L11.5349 16.0193C11.1201 17.8569 10.7324 19.575 10.2922 20.8541C10.1242 21.3426 9.96563 21.7142 9.8221 21.9797C9.68184 21.7154 9.52725 21.3463 9.36378 20.8619C8.9415 19.6101 8.57158 17.9401 8.17429 16.1465L8.10475 15.8326C7.69309 13.9764 7.24649 12.003 6.68812 10.4924C6.41069 9.74175 6.07137 9.00699 5.63225 8.43764C5.53282 8.30877 5.41981 8.17796 5.29284 8.05285ZM3.82212 10.5626C3.93786 10.7911 4.06028 11.0744 4.18688 11.4169C4.67018 12.7244 5.07966 14.5086 5.50132 16.41L5.58336 16.7804C5.96728 18.5153 6.36664 20.32 6.83702 21.7142C7.0872 22.4557 7.38931 23.182 7.7779 23.7465C8.14534 24.2804 8.80454 24.9699 9.81818 24.9699C10.8289 24.9699 11.4897 24.2837 11.8596 23.7523C12.2515 23.1891 12.5586 22.4636 12.8138 21.7216C13.3031 20.2998 13.7197 18.4528 14.1184 16.6853L14.1794 16.415C14.609 14.5125 15.0225 12.7247 15.5023 11.4124C15.7246 10.8044 15.9327 10.3809 16.1138 10.1181C16.2855 10.3786 16.4817 10.7954 16.6897 11.393C17.1468 12.7063 17.5309 14.4926 17.9385 16.3999L17.9519 16.4624C18.3434 18.2945 18.7588 20.2384 19.2768 21.7261C19.537 22.4739 19.8563 23.208 20.2738 23.7783C20.6838 24.3382 21.3659 24.9699 22.3635 24.9699C23.3664 24.9699 24.046 24.3324 24.4511 23.7675C24.8623 23.1944 25.1716 22.4578 25.4214 21.7113C25.9016 20.2774 26.2836 18.4168 26.6473 16.6469L26.6998 16.3899C27.0916 14.4849 27.4678 12.7056 27.9323 11.402C28.033 11.1184 28.1321 10.8766 28.2267 10.6735C28.9385 12.3049 29.3333 14.1064 29.3333 16C29.3333 23.3637 23.3639 29.3335 16 29.3335C8.6362 29.3335 2.66665 23.3637 2.66665 16C2.66665 14.0634 3.07956 12.2231 3.82212 10.5626ZM16 0C7.16346 0 0 7.16346 0 16C0 24.8365 7.16346 32 16 32C24.8367 32 31.9998 24.8365 31.9998 16C31.9998 7.16346 24.8367 0 16 0ZM16.3029 9.89659C16.3042 9.89564 16.3048 9.89506 16.3048 9.8949C16.3048 9.89457 16.3017 9.89638 16.2955 9.90134C16.2989 9.89935 16.3013 9.89774 16.3029 9.89659ZM15.9362 9.89671C15.9301 9.89291 15.927 9.89031 15.927 9.88998C15.927 9.88965 15.9301 9.89155 15.9362 9.89671ZM22.1607 22.3566C22.1607 22.3566 22.1636 22.3538 22.1694 22.35C22.1636 22.355 22.1607 22.3571 22.1607 22.3566ZM22.5484 22.3459C22.5546 22.3496 22.5579 22.3521 22.5579 22.3525C22.5579 22.3529 22.5546 22.3509 22.5484 22.3459ZM9.54492 22.3806C9.54488 22.3802 9.54872 22.3765 9.5564 22.3711C9.5488 22.3781 9.54492 22.381 9.54492 22.3806ZM10.085 22.3736C10.0926 22.3789 10.0964 22.3827 10.0964 22.3831C10.0964 22.3835 10.0925 22.381 10.085 22.3736Z" fill="#FF8F50"/>
</svg>
